<svg width="44" height="63" viewBox="0 0 44 63" fill="none" xmlns="http://www.w3.org/2000/svg">
<path fill-rule="evenodd" clip-rule="evenodd" d="M23.6445 61.7498C32.8792 49.1016 44 33.4603 44 22C44 9.84974 34.1503 0 22 0C9.84974 0 0 9.84974 0 22C0 33.0206 10.2837 47.4961 19.2849 60.1663C19.6561 60.6888 20.0251 61.2082 20.3911 61.7242C21.1832 62.8409 22.8371 62.8556 23.6445 61.7498ZM22 32C27.5228 32 32 27.5228 32 22C32 16.4772 27.5228 12 22 12C16.4772 12 12 16.4772 12 22C12 27.5228 16.4772 32 22 32Z" fill="#F73425"/>
</svg>
