<svg width="28" height="28" viewBox="0 0 28 28" fill="none" xmlns="http://www.w3.org/2000/svg">
<circle cx="14" cy="14" r="14" fill="white"/>
<path d="M6.54554 14.262L9.76421 15.4622L11.0189 19.4991C11.0735 19.7719 11.4008 19.8265 11.619 19.6628L13.4193 18.1899C13.5829 18.0262 13.8557 18.0262 14.0739 18.1899L17.2926 20.5357C17.5108 20.6993 17.8381 20.5902 17.8927 20.3174L20.293 8.86121C20.3476 8.58844 20.0748 8.31567 19.802 8.42478L6.54554 13.5528C6.21822 13.6619 6.21822 14.1529 6.54554 14.262ZM10.8553 14.8621L17.1835 10.9888C17.2926 10.9342 17.4017 11.0979 17.2926 11.1525L12.11 16.0077C11.9463 16.1714 11.7827 16.3896 11.7827 16.6624L11.619 17.9716C11.619 18.1353 11.3463 18.1899 11.2917 17.9716L10.6371 15.5713C10.4734 15.2985 10.5825 14.9712 10.8553 14.8621Z" fill="#F73425"/>
</svg>
