<svg width="60" height="64" viewBox="0 0 60 64" fill="none" xmlns="http://www.w3.org/2000/svg">
<path fill-rule="evenodd" clip-rule="evenodd" d="M16.885 56.5415C10.7188 51.6546 6.76086 44.0906 6.76086 35.6013C6.76086 20.8681 18.6811 8.91943 33.3804 8.91943C48.0797 8.91943 60 20.8681 60 35.6013C60 48.0281 51.5196 58.4737 40.0445 61.4397C48.8036 58.3084 55.0751 49.9212 55.0751 40.0679C55.0751 27.5411 44.9402 17.3824 32.4426 17.3824C19.9451 17.3824 9.81015 27.5411 9.81015 40.0679C9.80968 46.5553 12.5285 52.4071 16.885 56.5415Z" fill="#F73425"/>
<path fill-rule="evenodd" clip-rule="evenodd" d="M33.467 63.8134C32.3694 63.935 31.2544 64 30.1244 64C13.4898 64 0 50.4782 0 33.8047C0 17.4668 12.953 4.15697 29.125 3.62833C14.0633 5.29576 2.34326 18.0962 2.34326 33.637C2.34326 50.3104 15.8336 63.8323 32.4676 63.8323C32.8023 63.8318 33.1351 63.8247 33.467 63.8134Z" fill="white"/>
<path fill-rule="evenodd" clip-rule="evenodd" d="M33.4406 31.0013V39.2345H42.2388C42.1575 36.2313 41.6555 33.4279 40.8347 31.0013H33.4406Z" fill="white"/>
<path fill-rule="evenodd" clip-rule="evenodd" d="M24.3148 31.0013C23.4941 33.4279 22.9921 36.2318 22.9103 39.2345H31.7084V31.0013H24.3148Z" fill="white"/>
<path fill-rule="evenodd" clip-rule="evenodd" d="M17.5684 31.0013C16.1023 33.4246 15.204 36.2308 15.0583 39.2345H21.178C21.2547 36.2666 21.7233 33.4712 22.4961 31.0013H17.5684Z" fill="white"/>
<path fill-rule="evenodd" clip-rule="evenodd" d="M42.6533 31.0013C43.4256 33.4717 43.8943 36.2666 43.9714 39.2345H50.091C49.9453 36.2308 49.047 33.4246 47.5809 31.0013H42.6533Z" fill="white"/>
<path fill-rule="evenodd" clip-rule="evenodd" d="M18.7663 50.9404C19.2035 51.4992 19.6735 52.0311 20.1741 52.5324C21.9853 54.3478 24.1913 55.7683 26.6511 56.6532C25.812 55.7961 25.0458 54.7605 24.3694 53.577C23.9059 52.7661 23.4838 51.8836 23.1097 50.9404H18.7663Z" fill="white"/>
<path fill-rule="evenodd" clip-rule="evenodd" d="M24.9837 50.9404C25.2573 51.5665 25.5539 52.1597 25.8712 52.7152C27.4261 55.4362 29.4686 57.237 31.7079 57.6096V50.9404H24.9837Z" fill="white"/>
<path fill-rule="evenodd" clip-rule="evenodd" d="M33.4406 50.9404V57.6096C35.68 57.237 37.7224 55.4362 39.2774 52.7152C39.5951 52.1597 39.8917 51.5665 40.1648 50.9404H33.4406Z" fill="white"/>
<path fill-rule="evenodd" clip-rule="evenodd" d="M33.4406 40.9711V49.2042H40.8342C41.6549 46.7777 42.157 43.9738 42.2383 40.9711H33.4406Z" fill="white"/>
<path fill-rule="evenodd" clip-rule="evenodd" d="M22.9103 40.9711C22.9921 43.9743 23.4936 46.7777 24.3148 49.2042H31.7084V40.9711H22.9103Z" fill="white"/>
<path fill-rule="evenodd" clip-rule="evenodd" d="M15.0579 40.9711C15.2036 43.9747 16.1019 46.781 17.568 49.2042H22.4952C21.7229 46.7343 21.2543 43.9385 21.1772 40.9711H15.0579Z" fill="white"/>
<path fill-rule="evenodd" clip-rule="evenodd" d="M43.9714 40.9711C43.8948 43.9385 43.4261 46.7343 42.6533 49.2042H47.5805C49.0466 46.781 49.9449 43.9747 50.0906 40.9711H43.9714Z" fill="white"/>
<path fill-rule="evenodd" clip-rule="evenodd" d="M42.0395 50.9404C41.6648 51.8836 41.2427 52.7657 40.7797 53.577C40.1033 54.7605 39.3371 55.7961 38.498 56.6532C40.9583 55.7683 43.1639 54.3478 44.975 52.5324C45.4756 52.0311 45.9457 51.4992 46.3829 50.9404H42.0395Z" fill="white"/>
<path fill-rule="evenodd" clip-rule="evenodd" d="M26.6511 23.5528C24.1913 24.4376 21.9853 25.8582 20.1741 27.6735C19.6735 28.1749 19.2035 28.7063 18.7663 29.2651H23.1097C23.4843 28.3219 23.9064 27.4398 24.3694 26.629C25.0458 25.4454 25.812 24.4098 26.6511 23.5528Z" fill="white"/>
<path fill-rule="evenodd" clip-rule="evenodd" d="M31.7084 22.5964C29.4691 22.9691 27.4267 24.7694 25.8717 27.4903C25.5539 28.0463 25.2573 28.639 24.9842 29.2651H31.7089V22.5964H31.7084ZM33.4406 22.5964V29.2651H40.1648C39.8917 28.639 39.5946 28.0463 39.2773 27.4903C37.7224 24.7694 35.68 22.9691 33.4406 22.5964Z" fill="white"/>
<path fill-rule="evenodd" clip-rule="evenodd" d="M40.7792 26.629C41.2427 27.4398 41.6643 28.3223 42.039 29.2651H46.3819C45.9447 28.7063 45.4747 28.1749 44.974 27.6735C43.1629 25.8582 40.9574 24.4376 38.4971 23.5528C39.3366 24.4098 40.1033 25.4454 40.7792 26.629Z" fill="white"/>
<path fill-rule="evenodd" clip-rule="evenodd" d="M45.4324 1.56654C45.5273 1.63297 45.7393 1.7126 45.9203 1.78845C47.2468 2.34772 45.9165 3.23397 45.1259 3.56897C44.4772 3.84365 41.8538 4.08159 41.6592 4.12258C41.6019 4.13483 41.1365 4.17111 40.4934 4.21587C40.4991 4.25451 40.5033 4.29361 40.5047 4.33225C40.5137 4.53155 40.5043 4.68043 40.4887 4.74969C40.4065 5.1106 38.9314 5.4112 38.46 4.7855L35.8347 6.88074L34.3399 6.80395L36.8331 4.44061L31.763 4.28607L30.7054 4.81518L29.2228 4.62861L30.5719 3.76827C30.5719 3.76827 30.2992 3.6811 30.106 3.62126C29.8865 3.55294 29.9514 2.96682 30.2033 2.83773C30.405 2.73407 30.8755 2.77176 30.8755 2.77176L30.0195 0.293462L30.8976 0.0211306C31.778 -0.252142 33.1276 2.21673 33.5755 2.14653L43.1775 0.635997C44.0871 0.491822 44.731 1.07747 45.4324 1.56654Z" fill="white"/>
</svg>
