<svg width="239" height="116" viewBox="0 0 239 116" fill="none" xmlns="http://www.w3.org/2000/svg">
<path fill-rule="evenodd" clip-rule="evenodd" d="M16.8849 56.5415C10.7187 51.6546 6.76074 44.0906 6.76074 35.6013C6.76074 20.8681 18.681 8.91943 33.3803 8.91943C48.0796 8.91943 59.9999 20.8681 59.9999 35.6013C59.9999 48.0281 51.5195 58.4737 40.0444 61.4397C48.8035 58.3084 55.075 49.9212 55.075 40.0679C55.075 27.5411 44.94 17.3824 32.4425 17.3824C19.945 17.3824 9.81003 27.5411 9.81003 40.0679C9.80956 46.5553 12.5284 52.4071 16.8849 56.5415Z" fill="#F73425"/>
<path fill-rule="evenodd" clip-rule="evenodd" d="M33.467 63.8134C32.3694 63.935 31.2544 64 30.1244 64C13.4898 64 0 50.4782 0 33.8047C0 17.4668 12.953 4.15697 29.125 3.62833C14.0633 5.29576 2.34326 18.0962 2.34326 33.637C2.34326 50.3104 15.8336 63.8323 32.4676 63.8323C32.8023 63.8318 33.1351 63.8247 33.467 63.8134Z" fill="white"/>
<path fill-rule="evenodd" clip-rule="evenodd" d="M33.4404 31.0013V39.2345H42.2386C42.1573 36.2313 41.6553 33.4279 40.8345 31.0013H33.4404Z" fill="white"/>
<path fill-rule="evenodd" clip-rule="evenodd" d="M24.3147 31.0013C23.494 33.4279 22.9919 36.2318 22.9102 39.2345H31.7083V31.0013H24.3147Z" fill="white"/>
<path fill-rule="evenodd" clip-rule="evenodd" d="M17.5678 31.0013C16.1016 33.4246 15.2033 36.2308 15.0576 39.2345H21.1774C21.254 36.2666 21.7226 33.4712 22.4954 31.0013H17.5678Z" fill="white"/>
<path fill-rule="evenodd" clip-rule="evenodd" d="M42.6533 31.0013C43.4256 33.4717 43.8943 36.2666 43.9714 39.2345H50.091C49.9453 36.2308 49.047 33.4246 47.5809 31.0013H42.6533Z" fill="white"/>
<path fill-rule="evenodd" clip-rule="evenodd" d="M18.7656 50.9404C19.2028 51.4992 19.6728 52.0311 20.1735 52.5324C21.9846 54.3478 24.1906 55.7683 26.6504 56.6532C25.8114 55.7961 25.0452 54.7605 24.3688 53.577C23.9053 52.7661 23.4832 51.8836 23.109 50.9404H18.7656Z" fill="white"/>
<path fill-rule="evenodd" clip-rule="evenodd" d="M24.9834 50.9404C25.257 51.5665 25.5536 52.1597 25.8709 52.7152C27.4258 55.4362 29.4682 57.237 31.7076 57.6096V50.9404H24.9834Z" fill="white"/>
<path fill-rule="evenodd" clip-rule="evenodd" d="M33.4404 50.9404V57.6096C35.6798 57.237 37.7222 55.4362 39.2772 52.7152C39.5949 52.1597 39.8916 51.5665 40.1647 50.9404H33.4404Z" fill="white"/>
<path fill-rule="evenodd" clip-rule="evenodd" d="M33.4404 40.9711V49.2042H40.834C41.6547 46.7777 42.1568 43.9738 42.2381 40.9711H33.4404Z" fill="white"/>
<path fill-rule="evenodd" clip-rule="evenodd" d="M22.9102 40.9711C22.9919 43.9743 23.4935 46.7777 24.3147 49.2042H31.7083V40.9711H22.9102Z" fill="white"/>
<path fill-rule="evenodd" clip-rule="evenodd" d="M15.0576 40.9711C15.2033 43.9747 16.1016 46.781 17.5677 49.2042H22.4949C21.7226 46.7343 21.254 43.9385 21.1769 40.9711H15.0576Z" fill="white"/>
<path fill-rule="evenodd" clip-rule="evenodd" d="M43.9714 40.9711C43.8948 43.9385 43.4261 46.7343 42.6533 49.2042H47.5805C49.0466 46.781 49.9449 43.9747 50.0906 40.9711H43.9714Z" fill="white"/>
<path fill-rule="evenodd" clip-rule="evenodd" d="M42.0395 50.9404C41.6648 51.8836 41.2427 52.7657 40.7797 53.577C40.1033 54.7605 39.3371 55.7961 38.498 56.6532C40.9583 55.7683 43.1639 54.3478 44.975 52.5324C45.4756 52.0311 45.9457 51.4992 46.3829 50.9404H42.0395Z" fill="white"/>
<path fill-rule="evenodd" clip-rule="evenodd" d="M26.6504 23.5528C24.1906 24.4376 21.9846 25.8582 20.1735 27.6735C19.6728 28.1749 19.2028 28.7063 18.7656 29.2651H23.109C23.4836 28.3219 23.9057 27.4398 24.3688 26.629C25.0452 25.4454 25.8114 24.4098 26.6504 23.5528Z" fill="white"/>
<path fill-rule="evenodd" clip-rule="evenodd" d="M31.7086 22.5964C29.4692 22.9691 27.4268 24.7694 25.8718 27.4903C25.5541 28.0463 25.2575 28.639 24.9844 29.2651H31.7091V22.5964H31.7086ZM33.4408 22.5964V29.2651H40.165C39.8919 28.639 39.5948 28.0463 39.2775 27.4903C37.7225 24.7694 35.6801 22.9691 33.4408 22.5964Z" fill="white"/>
<path fill-rule="evenodd" clip-rule="evenodd" d="M40.7792 26.629C41.2427 27.4398 41.6643 28.3223 42.039 29.2651H46.3819C45.9447 28.7063 45.4747 28.1749 44.974 27.6735C43.1629 25.8582 40.9574 24.4376 38.4971 23.5528C39.3366 24.4098 40.1033 25.4454 40.7792 26.629Z" fill="white"/>
<path fill-rule="evenodd" clip-rule="evenodd" d="M45.4323 1.56654C45.5272 1.63297 45.7392 1.7126 45.9202 1.78845C47.2467 2.34772 45.9164 3.23397 45.1258 3.56897C44.4771 3.84365 41.8537 4.08159 41.6591 4.12258C41.6017 4.13483 41.1364 4.17111 40.4933 4.21587C40.499 4.25451 40.5032 4.29361 40.5046 4.33225C40.5135 4.53155 40.5041 4.68043 40.4886 4.74969C40.4064 5.1106 38.9313 5.4112 38.4598 4.7855L35.8345 6.88074L34.3397 6.80395L36.833 4.44061L31.7629 4.28607L30.7052 4.81518L29.2227 4.62861L30.5717 3.76827C30.5717 3.76827 30.2991 3.6811 30.1059 3.62126C29.8864 3.55294 29.9513 2.96682 30.2032 2.83773C30.4049 2.73407 30.8754 2.77176 30.8754 2.77176L30.0194 0.293462L30.8975 0.0211306C31.7779 -0.252142 33.1275 2.21673 33.5754 2.14653L43.1774 0.635997C44.0869 0.491822 44.7309 1.07747 45.4323 1.56654Z" fill="white"/>
<path d="M89.265 35.177H76.247V49H68.404V15.742H76.247V28.714H89.265V15.742H97.085V49H89.265V35.177ZM109.063 38.903C109.047 39.9917 109.216 40.9117 109.569 41.663C109.921 42.399 110.42 42.9587 111.064 43.342C111.708 43.7253 112.459 43.917 113.318 43.917C114.299 43.917 115.165 43.7177 115.917 43.319C116.683 42.905 117.243 42.192 117.596 41.18H124.588C124.327 42.9127 123.637 44.4 122.518 45.642C121.414 46.8687 120.064 47.8117 118.47 48.471C116.875 49.1303 115.227 49.46 113.525 49.46C111.102 49.46 108.971 48.9617 107.131 47.965C105.306 46.9683 103.88 45.5653 102.853 43.756C101.841 41.9467 101.335 39.823 101.335 37.385C101.335 35.0697 101.802 32.9613 102.738 31.06C103.673 29.1433 105.022 27.6177 106.786 26.483C108.549 25.333 110.673 24.758 113.157 24.758C115.671 24.758 117.772 25.287 119.459 26.345C121.145 27.3877 122.41 28.829 123.254 30.669C124.112 32.4937 124.542 34.5867 124.542 36.948V38.903H109.063ZM109.04 34.395H117.274C117.274 33.613 117.12 32.9 116.814 32.256C116.507 31.5967 116.047 31.0753 115.434 30.692C114.82 30.3087 114.061 30.117 113.157 30.117C112.329 30.117 111.608 30.324 110.995 30.738C110.381 31.1367 109.898 31.6657 109.546 32.325C109.193 32.969 109.024 33.659 109.04 34.395ZM128.833 49V25.218H136.377V31.313C136.745 30.071 137.274 28.9593 137.964 27.978C138.669 26.9813 139.536 26.1993 140.563 25.632C141.59 25.0493 142.779 24.758 144.128 24.758C144.297 24.758 144.442 24.7657 144.565 24.781C144.703 24.781 144.787 24.7963 144.818 24.827V32.256C144.741 32.2253 144.642 32.2023 144.519 32.187C144.412 32.1717 144.297 32.164 144.174 32.164C142.671 32.0107 141.429 32.0337 140.448 32.233C139.482 32.4323 138.715 32.7543 138.148 33.199C137.596 33.6437 137.205 34.1727 136.975 34.786C136.76 35.3993 136.653 36.0663 136.653 36.787V49H128.833ZM148.04 49V25.218H155.722V28.553C156.473 27.5103 157.477 26.621 158.735 25.885C159.992 25.1337 161.541 24.758 163.381 24.758C164.178 24.758 164.991 24.9037 165.819 25.195C166.647 25.471 167.421 25.8927 168.142 26.46C168.878 27.012 169.499 27.702 170.005 28.53C170.771 27.4873 171.776 26.598 173.018 25.862C174.26 25.126 175.647 24.758 177.181 24.758C178.07 24.758 178.975 24.919 179.895 25.241C180.815 25.5477 181.65 26.0383 182.402 26.713C183.168 27.3723 183.782 28.2387 184.242 29.312C184.717 30.3853 184.955 31.6963 184.955 33.245V49H177.112V34.28C177.112 33.5287 176.943 32.923 176.606 32.463C176.284 31.9877 175.87 31.6427 175.364 31.428C174.858 31.198 174.329 31.083 173.777 31.083C173.255 31.083 172.734 31.1903 172.213 31.405C171.691 31.6197 171.254 31.9493 170.902 32.394C170.549 32.8387 170.373 33.406 170.373 34.096V49H162.553V33.981C162.553 33.3523 162.384 32.8233 162.047 32.394C161.725 31.9647 161.311 31.6427 160.805 31.428C160.314 31.198 159.8 31.083 159.264 31.083C158.742 31.083 158.213 31.198 157.677 31.428C157.155 31.6427 156.718 31.9723 156.366 32.417C156.028 32.8617 155.86 33.4213 155.86 34.096V49H148.04Z" fill="white"/>
<path d="M196.601 38.903C196.586 39.9917 196.754 40.9117 197.107 41.663C197.46 42.399 197.958 42.9587 198.602 43.342C199.246 43.7253 199.997 43.917 200.856 43.917C201.837 43.917 202.704 43.7177 203.455 43.319C204.222 42.905 204.781 42.192 205.134 41.18H212.126C211.865 42.9127 211.175 44.4 210.056 45.642C208.952 46.8687 207.603 47.8117 206.008 48.471C204.413 49.1303 202.765 49.46 201.063 49.46C198.64 49.46 196.509 48.9617 194.669 47.965C192.844 46.9683 191.418 45.5653 190.391 43.756C189.379 41.9467 188.873 39.823 188.873 37.385C188.873 35.0697 189.341 32.9613 190.276 31.06C191.211 29.1433 192.561 27.6177 194.324 26.483C196.087 25.333 198.211 24.758 200.695 24.758C203.21 24.758 205.31 25.287 206.997 26.345C208.684 27.3877 209.949 28.829 210.792 30.669C211.651 32.4937 212.08 34.5867 212.08 36.948V38.903H196.601ZM196.578 34.395H204.812C204.812 33.613 204.659 32.9 204.352 32.256C204.045 31.5967 203.585 31.0753 202.972 30.692C202.359 30.3087 201.6 30.117 200.695 30.117C199.867 30.117 199.146 30.324 198.533 30.738C197.92 31.1367 197.437 31.6657 197.084 32.325C196.731 32.969 196.563 33.659 196.578 34.395ZM226.147 49.46C224.491 49.46 222.874 49.184 221.294 48.632C219.715 48.08 218.366 47.1983 217.246 45.987C216.127 44.7757 215.406 43.1963 215.084 41.249H221.8C222 42.0617 222.36 42.6827 222.881 43.112C223.403 43.5413 223.962 43.8327 224.56 43.986C225.158 44.1393 225.672 44.216 226.101 44.216C227.236 44.216 228.156 44.055 228.861 43.733C229.567 43.411 229.919 42.9203 229.919 42.261C229.919 41.709 229.697 41.2797 229.252 40.973C228.823 40.651 228.072 40.398 226.998 40.214L223.134 39.501C220.957 39.087 219.194 38.328 217.844 37.224C216.51 36.1047 215.836 34.5253 215.82 32.486C215.805 31.0293 216.196 29.7183 216.993 28.553C217.791 27.3877 218.964 26.4677 220.512 25.793C222.061 25.103 223.962 24.758 226.216 24.758C229.298 24.758 231.752 25.4327 233.576 26.782C235.401 28.1313 236.321 29.9943 236.336 32.371H229.896C229.728 31.5583 229.291 30.945 228.585 30.531C227.895 30.1017 227.067 29.887 226.101 29.887C225.12 29.887 224.292 30.0557 223.617 30.393C222.958 30.715 222.628 31.2057 222.628 31.865C222.628 32.371 222.92 32.7773 223.502 33.084C224.085 33.3907 225.013 33.6667 226.285 33.912L229.758 34.625C231.184 34.9777 232.342 35.453 233.231 36.051C234.121 36.6337 234.803 37.27 235.278 37.96C235.769 38.65 236.106 39.34 236.29 40.03C236.474 40.7047 236.566 41.3027 236.566 41.824C236.566 43.4647 236.114 44.8523 235.209 45.987C234.305 47.1217 233.063 47.988 231.483 48.586C229.919 49.1687 228.141 49.46 226.147 49.46Z" fill="#F73425"/>
</svg>
