<svg width="35" height="34" viewBox="0 0 35 34" fill="none" xmlns="http://www.w3.org/2000/svg">
<path d="M1.23654 1.26346C1.62707 0.872931 2.26023 0.872931 2.65076 1.26346L33.0563 31.669C33.4469 32.0596 33.4469 32.6927 33.0563 33.0833C32.6658 33.4738 32.0327 33.4738 31.6421 33.0833L1.23654 2.67767C0.84602 2.28714 0.84602 1.65398 1.23654 1.26346Z" fill="#F73425"/>
<path d="M33.7635 1.26346C34.154 1.65398 34.154 2.28715 33.7635 2.67767L3.35786 33.0833C2.96734 33.4738 2.33417 33.4738 1.94365 33.0833C1.55313 32.6927 1.55313 32.0596 1.94365 31.669L32.3492 1.26346C32.7398 0.872931 33.3729 0.872931 33.7635 1.26346Z" fill="#F73425"/>
</svg>
