<svg width="57" height="56" viewBox="0 0 57 56" fill="none" xmlns="http://www.w3.org/2000/svg">
<rect x="1.5" y="1" width="54" height="54" rx="27" fill="#10132C"/>
<path d="M23.96 31.9C25.4267 30.3267 26.52 29.1267 27.24 28.3C27.9733 27.46 28.52 26.74 28.88 26.14C29.24 25.5267 29.42 24.9733 29.42 24.48C29.42 24.0267 29.28 23.6667 29 23.4C28.7333 23.1333 28.38 23 27.94 23C27.1 23 26.3267 23.5 25.62 24.5L23.56 23.04C24.1733 22.1467 24.8733 21.48 25.66 21.04C26.46 20.6 27.32 20.38 28.24 20.38C29.0133 20.38 29.7067 20.5333 30.32 20.84C30.9333 21.1333 31.4133 21.5667 31.76 22.14C32.12 22.7 32.3 23.36 32.3 24.12C32.3 25.1733 31.9333 26.2467 31.2 27.34C30.48 28.4333 29.3 29.7933 27.66 31.42H32.32L32.1 34H23.96V31.9Z" fill="white"/>
<rect x="1.5" y="1" width="54" height="54" rx="27" stroke="#10132C" stroke-width="2"/>
</svg>
