<svg width="57" height="56" viewBox="0 0 57 56" fill="none" xmlns="http://www.w3.org/2000/svg">
<rect x="1.5" y="1" width="54" height="54" rx="27" fill="#10132C"/>
<path d="M25.68 34.3C25 34.3 24.3 34.24 23.58 34.12L23.94 31.64C24.7133 31.7733 25.38 31.84 25.94 31.84C27.0067 31.84 27.86 31.6133 28.5 31.16C29.14 30.7067 29.46 30.1133 29.46 29.38C29.46 28.9133 29.3267 28.5467 29.06 28.28C28.7933 28.0133 28.42 27.88 27.94 27.88C27.6067 27.88 27.24 27.9467 26.84 28.08L26.44 26.16C27.08 25.96 27.66 25.6333 28.18 25.18C28.7133 24.7133 28.98 24.2467 28.98 23.78C28.98 23.4867 28.8667 23.2533 28.64 23.08C28.4267 22.8933 28.1333 22.8 27.76 22.8C27.3867 22.8 27 22.9067 26.6 23.12C26.2 23.32 25.8267 23.6067 25.48 23.98L23.8 22.14C24.36 21.5933 25 21.1667 25.72 20.86C26.4533 20.54 27.2133 20.38 28 20.38C28.7333 20.38 29.38 20.5133 29.94 20.78C30.5 21.0333 30.9333 21.3933 31.24 21.86C31.5467 22.3133 31.7 22.8267 31.7 23.4C31.7 24.36 31.2667 25.2533 30.4 26.08C31.0267 26.3733 31.5 26.8 31.82 27.36C32.1533 27.9067 32.32 28.5333 32.32 29.24C32.32 30.1867 32.04 31.0467 31.48 31.82C30.9333 32.5933 30.1533 33.2 29.14 33.64C28.1267 34.08 26.9733 34.3 25.68 34.3Z" fill="white"/>
<rect x="1.5" y="1" width="54" height="54" rx="27" stroke="#10132C" stroke-width="2"/>
</svg>
