<svg width="1920" height="500" viewBox="0 0 1920 500" fill="none" xmlns="http://www.w3.org/2000/svg">
<g opacity="0.2">
<path d="M751.212 429.292C715.171 429.292 676.814 425.905 631.463 418.759C510.741 399.733 422.493 348.04 337.117 298.063C304.411 278.899 270.595 259.131 235.944 241.869C175.815 211.8 115.129 191.707 41.0565 191.707C-16.9881 191.707 -83.1859 204.05 -163.791 233.609L-163.883 233.424C-118.254 216.672 -76.9321 205.257 -37.6026 198.528C-0.774567 192.217 33.274 190.129 66.4887 192.264C96.6923 194.166 125.784 199.549 155.385 208.644C180.725 216.44 207.13 227.252 236.036 241.73C270.687 258.945 304.504 278.76 337.209 297.924C422.585 347.901 510.834 399.594 631.509 418.62C704.331 430.128 800.408 439.13 898.06 406.694C960.691 385.905 1021.93 352.82 1080.07 308.411C1148.49 256.161 1219.18 214.166 1290.24 183.586C1356.26 155.141 1422.27 136.626 1486.52 128.552C1512.79 125.257 1538.5 123.587 1563.74 123.587C1625.26 123.587 1683.91 133.471 1741.49 153.424C1824.09 182.055 1905.85 231.846 1991.37 305.627L1991.23 305.813C1847.39 181.684 1712.82 123.772 1563.93 123.772C1538.59 123.772 1512.83 125.443 1486.57 128.784C1352.74 145.675 1212.23 207.855 1080.25 308.597C1050.24 331.52 1019.25 351.567 988.069 368.179C958.792 383.771 928.542 396.81 898.199 406.926C855.256 421.218 810.229 428.55 760.569 429.339C757.373 429.246 754.315 429.292 751.212 429.292Z" fill="#F73425"/>
<path d="M706.415 437.83C688.071 437.83 668.754 437.088 647.954 435.649C586.898 431.38 529.826 417.969 468.307 393.515C414.015 371.937 364.818 345.162 312.703 316.856C289.773 304.374 266.008 291.474 242.012 279.177C122.495 217.553 17.8013 194.676 -163.652 260.291L-163.791 259.873C-117.281 243.075 -75.45 231.892 -35.9815 225.72C0.939133 219.966 35.0803 218.713 68.434 221.915C98.4523 224.792 127.822 231.288 158.211 241.822C183.597 250.592 210.28 262.379 242.197 278.805C266.193 291.102 289.958 304.003 312.889 316.485C416.331 372.726 513.983 425.811 648 435.185C719.803 440.197 814.12 440.382 907.047 396.902C966.064 369.246 1025.31 332.03 1083.13 286.184C1152.52 231.149 1225.3 189.989 1299.46 163.864C1333.65 151.799 1368.07 143.029 1401.75 137.785C1434.03 132.774 1465.86 130.918 1496.34 132.356C1586.58 136.579 1665.61 153.006 1745.06 184.003C1825.57 215.418 1907.24 262.054 2002.11 330.731L2001.88 331.056C1816.35 196.718 1674.64 141.127 1496.34 132.774C1489.44 132.449 1482.49 132.264 1475.54 132.264C1347.87 132.264 1209.45 186.509 1083.45 286.508C1025.64 332.355 966.342 369.663 907.279 397.273C867.023 416.113 824.033 428.085 775.856 433.839C753.713 436.531 730.967 437.83 706.415 437.83Z" fill="#F73425"/>
<path d="M632.62 453.7C504.07 453.7 400.581 398.202 291.44 339.64C277.311 332.077 262.719 324.234 248.127 316.578C135.466 256.857 33.598 216.764 -163.42 287.065L-163.652 286.462C-72.6242 253.98 1.77304 242.982 70.426 251.706C132.316 259.595 186.33 283.121 248.405 316.021C262.997 323.678 277.589 331.52 291.718 339.084C400.766 397.552 504.209 453.05 632.62 453.05C643.09 453.05 653.698 452.679 664.492 451.937C751.953 445.765 837.004 436.16 916.08 387.343C971.16 353.329 1026.84 313.005 1086.23 264.142C1154.37 208.087 1229.23 169.34 1308.73 148.969C1373.54 132.356 1440.01 128.087 1506.21 136.393C1588.85 146.695 1663.76 168.922 1749.09 208.412C1829.18 245.488 1912.43 295.047 2012.95 356.021L2012.63 356.578C1811.39 234.537 1679.28 158.621 1506.16 136.997C1401.47 123.911 1243.69 135.465 1086.65 264.606C1027.21 313.515 971.531 353.84 916.405 387.854C880.04 410.313 839.089 426.276 791.189 436.67C747.366 446.183 702.848 449.848 664.538 452.586C653.744 453.329 643.09 453.7 632.62 453.7Z" fill="#F73425"/>
<path d="M625.44 472.493C571.333 472.493 517.087 463.862 461.081 446.461C388.49 423.909 318.772 388.643 254.242 353.933C124.116 283.353 31.0965 245.395 -163.235 313.747L-163.513 312.959C-71.2807 280.523 3.67235 270.499 72.418 281.451C137.782 291.845 193.603 320.105 254.612 353.19C386.406 424.095 518.199 486.322 680.983 468.596C780.998 457.737 860.815 427.993 925.067 377.645C977.368 336.671 1028.56 293.748 1089.33 241.961C1158.22 183.261 1235.21 146.185 1318.08 131.753C1399.8 117.554 1470.91 128.505 1516.12 140.245C1636.61 171.428 1730.65 223.075 1849.7 288.458C1900.48 316.346 1958.01 347.947 2023.7 381.172L2023.33 381.914C1957.59 348.643 1900.06 317.042 1849.29 289.2C1730.28 223.864 1636.29 172.263 1515.89 141.08C1427.97 118.296 1255.73 101.266 1089.84 242.611C1029.02 294.444 977.831 337.32 925.531 378.341C861.186 428.781 781.183 458.572 681.03 469.477C662.5 471.473 643.97 472.493 625.44 472.493Z" fill="#F73425"/>
<path d="M600.61 496.066C559.567 496.066 518.199 490.869 475.812 480.475C410.355 464.419 341.888 436.113 260.31 391.287C132.872 320.708 40.7784 269.71 -163.05 340.476L-163.374 339.501C-68.6865 306.601 4.64525 297.877 74.41 311.195C140.7 323.817 199.069 356.16 260.82 390.359C431.202 483.955 561.744 512.354 697.429 485.301C794.062 466.043 873.694 426.554 934.008 368.039C980.611 322.796 1035.13 270.36 1092.39 219.873C1162.25 158.296 1241.28 122.936 1327.4 114.816C1410.97 106.927 1481.56 126.463 1526.08 144.236C1607.52 176.764 1674.74 216.115 1745.89 257.785C1823.9 303.446 1912.29 355.232 2034.54 406.415L2034.12 407.389C1911.78 356.16 1823.35 304.374 1745.34 258.713C1674.23 217.089 1607.06 177.739 1525.67 145.257C1453.86 116.579 1267.92 66.5099 1093.09 220.708C1035.88 271.195 981.352 323.631 934.749 368.875C874.249 427.529 794.479 467.064 697.614 486.414C665.279 492.864 633.038 496.066 600.61 496.066Z" fill="#F73425"/>
<path d="M580.042 522.795C481.371 522.795 379.133 491.798 266.425 428.735L256.512 423.121C124.07 348.318 36.6092 298.899 -162.864 367.297L-163.281 366.091C36.7019 297.507 124.394 347.019 257.114 422.007L267.027 427.622C431.109 519.5 573.094 543.166 713.92 502.099C808.7 474.443 885.784 426.137 943.041 358.527C997.843 293.841 1046.3 242.751 1095.54 197.832C1166.42 133.192 1247.53 99.596 1336.66 98.0183C1338.84 97.9719 1341.02 97.9719 1343.15 97.9719C1430.75 97.9719 1501.34 129.294 1536.04 148.273C1593.99 179.967 1643.75 213.795 1691.83 246.509C1785.18 309.989 1881.67 375.604 2045.33 431.659L2044.92 432.865C1881.11 376.764 1784.53 311.056 1691.09 247.576C1643.01 214.908 1593.35 181.08 1535.44 149.433C1478.97 118.575 1280.52 30.8726 1096.38 198.807C1047.13 243.725 998.724 294.722 943.968 359.409C886.572 427.204 809.256 475.649 714.245 503.352C669.866 516.252 625.348 522.749 580.042 522.795Z" fill="#F73425"/>
<path d="M563.134 551.75C543.909 551.75 524.638 550.543 505.228 548.177C430.09 538.896 351.801 511.286 272.54 466.089C264.016 461.217 255.724 456.391 247.571 451.704C118.465 377.041 33.1812 327.714 -162.679 394.025L-163.142 392.633C-70.7711 361.357 0.19812 353.793 66.9981 368.085C128.888 381.356 181.605 411.844 248.312 450.405C256.419 455.091 264.711 459.917 273.235 464.79C433.147 555.926 586.945 574.07 730.319 518.803C822.088 483.398 898.755 424.697 951.982 348.967C1001.04 279.176 1049.03 222.518 1098.65 175.743C1170.63 107.901 1253.74 76.1148 1345.79 81.2192C1414.25 85.0707 1487.26 110.964 1546.05 152.263C1590.2 183.26 1628.23 214.119 1665.01 243.91C1766.14 325.904 1861.7 403.352 2056.17 456.855L2055.8 458.293C1861.05 404.697 1765.39 327.157 1664.13 245.07C1627.39 215.279 1589.36 184.467 1545.26 153.469C1434.04 75.326 1250.59 34.5373 1099.71 176.81C1050.19 223.492 1002.24 280.104 953.279 349.802C899.867 425.765 823.015 484.697 730.968 520.149C676.444 541.17 620.206 551.75 563.134 551.75Z" fill="#F73425"/>
<path d="M550.394 582.841C540.249 582.841 530.058 582.516 519.867 581.82C440.327 576.437 359.167 550.08 278.655 503.491C265.128 495.602 252.203 487.946 239.742 480.521C109.246 403.028 30.4478 356.253 -162.401 420.8L-162.957 419.176C-71.8831 388.689 -2.16463 381.589 63.0603 396.114C123.653 409.617 175.258 440.243 240.576 479.036C253.084 486.461 265.962 494.118 279.489 501.96C438.938 594.256 600.564 605.857 746.81 535.509C837.097 492.076 911.123 424.28 961.015 339.362C1005.95 262.843 1052 202.101 1101.8 153.609C1173.88 83.4009 1261.38 52.5426 1354.82 64.4219C1455.67 77.1828 1529.19 132.913 1556.15 156.254C1592.05 187.391 1623.13 217.368 1653.15 246.37C1762.24 351.752 1848.41 434.953 2067.01 482.053L2066.64 483.723C1966.21 462.099 1886.95 431.287 1817.28 386.74C1754.37 346.555 1704.62 298.481 1651.95 247.623C1621.93 218.62 1590.89 188.69 1555.03 157.554C1465.67 80.0599 1269.91 -7.68899 1103 154.816C1053.29 203.215 1007.34 263.864 962.497 340.197C912.467 425.394 838.162 493.421 747.598 536.994C684.272 567.481 618.121 582.841 550.394 582.841Z" fill="#F73425"/>
<path d="M540.713 615.416C538.582 615.416 536.451 615.416 534.366 615.369C450.89 614.163 366.903 589.059 284.723 540.799C266.333 529.987 249.239 519.546 232.747 509.43C105.17 431.565 28.1781 384.512 -162.262 447.482L-162.864 445.672C28.4098 382.424 105.679 429.617 233.72 507.806C250.258 517.876 267.305 528.317 285.696 539.129C445.701 633.095 615.295 637.736 763.21 552.214C852.153 500.799 923.631 423.862 969.956 329.803C1011.05 246.323 1055.15 181.451 1104.85 131.521C1164.57 71.475 1233.54 41.4056 1309.56 42.0552C1415.83 42.9833 1511.72 103.725 1566.06 160.291C1596.96 192.449 1623.64 222.889 1649.44 252.309C1759.56 377.877 1839.1 468.642 2077.71 507.249L2077.44 509.106C1967.28 491.287 1883.48 460.753 1813.57 413.051C1749.64 369.431 1702.58 315.696 1648.05 253.516C1622.25 224.096 1595.57 193.655 1564.72 161.544C1510.66 105.257 1415.23 44.793 1309.56 43.865C1308.77 43.865 1307.94 43.865 1307.15 43.865C1232.52 43.865 1164.94 73.7952 1106.24 132.774C1056.72 182.565 1012.71 247.298 971.716 330.592C925.253 425.023 853.496 502.191 764.229 553.838C693.584 594.72 618.445 615.416 540.713 615.416Z" fill="#F73425"/>
<path d="M533.579 649.198C451.584 649.198 370.007 625.347 290.792 578.201C267.676 564.419 246.737 551.287 226.493 538.526C101.695 460.058 26.3251 412.68 -162.123 474.257L-162.772 472.262C26.603 410.36 102.297 457.923 227.605 536.716C247.849 549.431 268.741 562.563 291.857 576.345C455.522 673.792 628.729 671.193 779.608 569.013C866.143 510.405 936.926 422.053 978.896 320.291C1016.23 229.758 1058.44 160.802 1107.91 109.434C1167.11 47.9954 1235.77 18.4365 1311.88 21.5455C1424.63 26.1858 1524.65 101.359 1576.02 164.329C1603.72 198.25 1627.58 230.082 1650.65 260.848C1756.18 401.636 1832.47 503.352 2088.42 532.447L2088.18 534.535C1831.31 505.348 1754.83 403.306 1648.93 262.101C1625.86 231.335 1602.01 199.549 1574.35 165.628C1523.26 103.03 1423.8 28.2276 1311.74 23.6336C1236.18 20.5246 1168.13 49.8516 1109.39 110.872C1060.1 162.009 1018.04 230.779 980.796 321.08C938.64 423.26 867.579 511.937 780.72 570.73C708.5 619.639 630.443 645.903 548.681 648.873C543.724 649.105 538.674 649.198 533.579 649.198Z" fill="#F73425"/>
<path d="M529.27 684C450.982 684 372.416 661.03 296.953 615.555C269.205 598.85 244.745 582.98 221.073 567.667C98.7766 488.456 24.9817 440.661 -161.845 501.031L-162.54 498.804C25.3523 438.108 99.5178 486.136 222.37 565.718C245.996 581.031 270.455 596.854 298.157 613.56C418.647 686.181 547.013 701.076 669.402 656.576C812.082 604.697 931.182 475.417 987.976 310.777C1022.12 211.799 1064.92 135.187 1115.23 83.0295C1159.42 37.1829 1209.55 10.0369 1264.12 2.28752C1323.64 -6.1579 1388.45 8.87679 1451.55 45.8139C1503.75 76.3474 1552.81 121.034 1586.16 168.412C1611.78 204.792 1633.69 238.713 1654.91 271.474C1759 432.354 1827.75 538.665 2099.35 557.69L2099.16 560.01C1826.4 540.892 1757.43 434.211 1652.96 272.727C1631.79 239.966 1609.88 206.091 1584.27 169.711C1519.41 77.5539 1391.65 -13.4432 1264.44 4.56128C1148.63 20.9881 1053.8 127.113 990.2 311.473C933.174 476.809 813.564 606.599 670.236 658.71C623.773 675.601 576.568 684 529.27 684Z" fill="#F73425"/>
</g>
</svg>
