<svg width="1920" height="942" viewBox="0 0 1920 942" fill="none" xmlns="http://www.w3.org/2000/svg">
<path opacity="0.1" d="M-111.66 708.831C-76.9731 733.648 -26.653 715.504 0.949829 682.534C28.5526 649.565 40.1383 605.954 55.004 565.156C69.9047 524.359 91.4006 482.371 129.333 463.289C200.172 427.722 286.156 489.225 361.88 466.86C414.923 451.205 448.528 399.153 490.508 362.179C552.972 307.134 640.805 284.372 720.996 302.372C801.188 320.372 871.957 378.773 906.679 455.642C949.74 550.944 940.912 671.677 1009.03 749.845C1066.19 815.496 1161.7 829.564 1246.32 817.263C1330.95 804.963 1411.38 770.983 1495.69 756.59C1681.86 724.919 1881.61 797.171 2008 942V-256.887C1182.29 -507.449 716.371 -507.96 -120 -256.887L-111.66 708.831Z" fill="#F73425"/>
</svg>
